<svg width="76" height="75" viewBox="0 0 76 75" fill="none" xmlns="http://www.w3.org/2000/svg">
<g clip-path="url(#clip0_3699_3327)">
<path fill-rule="evenodd" clip-rule="evenodd" d="M62.6274 32.2037L62.9116 30.1798C63.0055 29.5107 63.0518 28.8217 63.0518 28.125C63.0518 19.445 55.9853 12.375 47.3018 12.375C42.261 12.375 37.6381 14.7546 34.7091 18.6561L33.5239 20.2348L31.6051 19.7709C30.6026 19.5286 29.585 19.4062 28.5518 19.4062C21.1632 19.4062 15.1455 25.4239 15.1455 32.8125C15.1455 33.0014 15.1492 33.1845 15.1567 33.3666L15.2528 35.7005L13.0137 36.3658C7.47109 38.0124 3.42676 43.1588 3.42676 49.2188C3.42676 56.6073 9.44445 62.625 16.833 62.625H56.6768C65.3608 62.625 72.4268 55.5591 72.4268 46.875C72.4268 41.1527 69.2776 35.9604 64.4069 33.209L62.6274 32.2037ZM12.1593 33.49C12.15 33.2657 12.1455 33.0415 12.1455 32.8125C12.1455 23.7671 19.5063 16.4062 28.5518 16.4062C29.8244 16.4062 31.0786 16.5573 32.31 16.8549C35.7982 12.2086 41.305 9.375 47.3018 9.375C57.6427 9.375 66.0518 17.7886 66.0518 28.125C66.0518 28.9535 65.9968 29.7822 65.8824 30.5969C71.6686 33.8654 75.4268 40.0406 75.4268 46.875C75.4268 57.2159 67.0177 65.625 56.6768 65.625H16.833C7.7876 65.625 0.426758 58.2642 0.426758 49.2188C0.426758 41.7939 5.37983 35.5042 12.1593 33.49Z" fill="black"/>
<path d="M48.642 35.2345C49.2523 35.8445 49.2523 36.8339 48.6423 37.4442L39.4902 46.5972C39.1971 46.8903 38.7996 47.055 38.3852 47.055C37.9706 47.055 37.5731 46.8903 37.2803 46.5972L33.2343 42.5506C32.6243 41.9403 32.6243 40.9513 33.2347 40.341C33.845 39.731 34.8343 39.7313 35.4443 40.3413L38.3852 43.2825L46.4323 35.2348C47.0423 34.6245 48.0316 34.6242 48.642 35.2345Z" fill="black"/>
</g>
<defs>
<clipPath id="clip0_3699_3327">
<rect width="75" height="75" fill="white" transform="translate(0.426758)"/>
</clipPath>
</defs>
</svg>
